<svg width="48" height="48" viewBox="0 0 48 48" fill="none" xmlns="http://www.w3.org/2000/svg">
<path d="M10.9941 18.2543C10.9993 18.3333 11.0349 18.4073 11.0936 18.4606C11.1522 18.5139 11.2292 18.5424 11.3084 18.54C11.3898 18.5377 11.4669 18.5035 11.5231 18.4446C11.5793 18.3857 11.61 18.3071 11.6084 18.2257C11.6084 18.1743 11.8941 17.4857 12.2627 16.6343C12.677 15.6743 13.1856 14.5428 13.5027 13.8514C13.5466 14.3141 13.6172 14.774 13.7141 15.2286C14.0484 16.7257 14.4141 18.5457 14.4141 18.7028C14.4141 18.7847 14.4466 18.8632 14.5045 18.921C14.5624 18.9789 14.6409 19.0114 14.7227 19.0114C14.8045 19.0114 14.883 18.9789 14.9409 18.921C14.9988 18.8632 15.0313 18.7847 15.0313 18.7028C15.0313 18.52 14.657 16.6286 14.3141 15.0943C14.1857 14.4626 14.0119 13.841 13.7941 13.2343C13.8024 13.1641 13.7864 13.0932 13.7487 13.0335C13.711 12.9737 13.6539 12.9287 13.587 12.906C13.5201 12.8832 13.4475 12.8841 13.3812 12.9085C13.3148 12.9329 13.2589 12.9793 13.2227 13.04L13.5084 13.1771L13.2227 13.04C13.0141 13.4543 12.2656 15.1 11.7056 16.4028C11.4165 16.9978 11.1812 17.6174 11.0027 18.2543H10.9941Z" fill="#1D1D1B"/>
<path d="M12.1059 15.1143C12.0241 15.1143 11.9456 15.1468 11.8877 15.2047C11.8299 15.2625 11.7974 15.341 11.7974 15.4229C11.7974 15.5047 11.8299 15.5832 11.8877 15.6411C11.9456 15.6989 12.0241 15.7314 12.1059 15.7314C12.3602 15.7314 12.5174 15.7314 12.6602 15.7486C12.9923 15.7685 13.3253 15.7685 13.6574 15.7486C13.8516 15.7486 14.3059 15.6772 14.6231 15.6343L14.9088 15.5972C14.9493 15.5972 14.9894 15.5892 15.0269 15.5737C15.0643 15.5582 15.0983 15.5354 15.127 15.5068C15.1556 15.4781 15.1784 15.4441 15.1939 15.4067C15.2094 15.3692 15.2174 15.3291 15.2174 15.2886C15.2174 15.2481 15.2094 15.2079 15.1939 15.1705C15.1784 15.1331 15.1556 15.099 15.127 15.0704C15.0983 15.0417 15.0643 15.019 15.0269 15.0035C14.9894 14.988 14.9493 14.98 14.9088 14.98C14.8774 14.98 14.7345 15 14.5402 15.0257C14.2374 15.0657 13.8002 15.1229 13.6174 15.1343C13.3082 15.1561 12.9979 15.1561 12.6888 15.1343C12.5231 15.1343 12.3431 15.1172 12.1031 15.1172L12.1059 15.1143Z" fill="#1D1D1B"/>
<path d="M18.0656 13.0314C18.0444 12.9543 17.994 12.8884 17.9252 12.8477C17.8564 12.807 17.7744 12.7946 17.6966 12.8131C17.6188 12.8316 17.5512 12.8796 17.5081 12.947C17.465 13.0144 17.4497 13.0959 17.4656 13.1743C17.6043 13.9037 17.6551 14.6471 17.617 15.3886C17.5667 16.252 17.6417 17.1181 17.8399 17.96C17.8445 18.0352 17.8764 18.1061 17.9297 18.1594C17.983 18.2126 18.0539 18.2445 18.1291 18.2491C18.2043 18.2537 18.2786 18.2306 18.3379 18.1842C18.3973 18.1377 18.4376 18.0712 18.4513 17.9971C18.4411 18.0732 18.4026 18.1427 18.3436 18.1917C18.2845 18.2407 18.2092 18.2657 18.1325 18.2618C18.0559 18.2578 17.9835 18.2252 17.9298 18.1703C17.8761 18.1155 17.845 18.0424 17.8427 17.9657L18.0684 13.0371L18.0656 13.0314ZM18.0656 13.0314C18.2168 13.8084 18.2724 14.601 18.2313 15.3914C18.1818 16.2029 18.2511 17.0172 18.437 17.8086V17.8371V17.88C18.4384 17.8962 18.4384 17.9124 18.437 17.9286C18.4383 17.9409 18.4383 17.9534 18.437 17.9657C18.4252 18.0302 18.393 18.0891 18.3451 18.1338C18.2973 18.1786 18.2364 18.2068 18.1713 18.2143C18.1012 18.2203 18.0311 18.2024 17.9725 18.1635C17.9138 18.1246 17.8701 18.0669 17.8484 18V17.9829C17.8469 17.9705 17.8469 17.9581 17.8484 17.9457L18.0741 13.0486L18.0656 13.0314ZM18.1399 17.8886L18.0313 17.92L18.1399 17.8886ZM17.997 17.92H17.977H17.997H17.9799H17.9627L17.8541 17.9514L17.9599 17.9229H17.8513H17.9627H17.9827L17.8513 17.9371V17.9029L18.0027 17.9171L17.997 17.92Z" fill="#1D1D1B"/>
<path d="M20.8056 13C20.8056 12.9182 20.7731 12.8397 20.7152 12.7818C20.6574 12.7239 20.5789 12.6914 20.497 12.6914C20.4152 12.6914 20.3367 12.7239 20.2789 12.7818C20.221 12.8397 20.1885 12.9182 20.1885 13C20.1947 14.2052 20.2691 15.409 20.4113 16.6057C20.537 17.48 20.7685 18.1343 21.1856 18.1343C21.3092 18.1311 21.4288 18.0903 21.5285 18.0172C21.6184 17.9513 21.683 17.8564 21.7113 17.7486C21.7314 17.6698 21.7195 17.5863 21.6783 17.5162C21.6371 17.4461 21.5699 17.3951 21.4913 17.3743C21.4337 17.3663 21.3749 17.3719 21.3198 17.3908C21.2647 17.4096 21.2148 17.4412 21.1742 17.4829C21.1456 17.3714 21.0885 16.9943 21.0199 16.5172C20.8833 15.3496 20.8118 14.1755 20.8056 13Z" fill="#1D1D1B"/>
<path d="M17.517 15.1429C17.4413 15.1747 17.3812 15.2353 17.3502 15.3114C17.3191 15.3875 17.3195 15.4728 17.3513 15.5486C17.3832 15.6244 17.4438 15.6844 17.5199 15.7155C17.5959 15.7465 17.6813 15.7461 17.757 15.7143C18.0885 15.5743 19.4142 15.4429 20.3056 15.3571C20.6542 15.3519 21 15.2941 21.3313 15.1857C21.3627 15.1598 21.3886 15.128 21.4076 15.0921C21.4267 15.0562 21.4384 15.0169 21.4423 14.9764C21.4461 14.936 21.442 14.8952 21.43 14.8563C21.4181 14.8175 21.3986 14.7813 21.3728 14.75C21.3469 14.7187 21.3151 14.6928 21.2791 14.6737C21.2432 14.6547 21.2039 14.6429 21.1635 14.6391C21.123 14.6352 21.0822 14.6394 21.0433 14.6513C21.0045 14.6632 20.9684 14.6827 20.937 14.7086C20.8913 14.7486 20.6713 14.7086 20.2456 14.7429C19.317 14.8343 17.9342 14.9714 17.517 15.1486V15.1429Z" fill="#1D1D1B"/>
<path d="M23.3913 15.1971C23.3986 15.2735 23.4342 15.3443 23.491 15.3959C23.5478 15.4475 23.6217 15.476 23.6984 15.476C23.7751 15.476 23.8491 15.4475 23.9059 15.3959C23.9626 15.3443 23.9982 15.2735 24.0056 15.1971V15.0314C24.0056 14.64 24.0056 13.8686 23.9713 13.4543C24.2866 13.3438 24.6172 13.2831 24.9513 13.2743C25.2627 13.2743 25.5456 13.3857 25.5856 13.7486L25.8941 13.7143L25.5884 13.7486V13.7657C25.6113 13.9571 25.7113 14.8057 25.8084 14.9086C25.8276 14.9509 25.8561 14.9883 25.8918 15.018C25.9275 15.0478 25.9694 15.0691 26.0144 15.0804C26.0595 15.0917 26.1065 15.0926 26.152 15.0832C26.1975 15.0738 26.2403 15.0542 26.2771 15.026C26.314 14.9977 26.344 14.9615 26.3649 14.92C26.3858 14.8785 26.3971 14.8329 26.3979 14.7864C26.3987 14.74 26.3891 14.694 26.3696 14.6518C26.3501 14.6096 26.3214 14.5724 26.2856 14.5428C26.2856 14.5257 26.2198 13.8771 26.2056 13.7143C26.2043 13.7067 26.2043 13.699 26.2056 13.6914C26.117 12.9114 25.5713 12.6771 24.9656 12.6714C24.5122 12.6828 24.064 12.7707 23.6398 12.9314C23.3056 13.0486 23.3113 13.1228 23.3541 13.42V13.4286L23.6598 13.3828L23.3541 13.4286C23.4027 13.7686 23.397 14.6086 23.397 15.0171V15.1828L23.3913 15.1971Z" fill="#1D1D1B"/>
<path d="M24.8199 13.0086C24.8125 12.9322 24.7769 12.8613 24.7201 12.8098C24.6634 12.7582 24.5894 12.7296 24.5127 12.7296C24.436 12.7296 24.3621 12.7582 24.3053 12.8098C24.2485 12.8613 24.2129 12.9322 24.2056 13.0086C24.2056 13.2771 24.237 13.64 24.2741 14.0371C24.3141 14.48 24.3599 14.9657 24.3599 15.4028C24.3599 15.84 24.3827 16.5457 24.4456 17.2057C24.4743 17.6733 24.5509 18.1366 24.6741 18.5886C24.6955 18.6478 24.7253 18.7036 24.7627 18.7543C24.8173 18.824 24.8892 18.8782 24.9713 18.9114C25.0482 18.9382 25.1326 18.9337 25.2063 18.899C25.28 18.8643 25.3372 18.8021 25.3656 18.7257C25.3827 18.44 25.0798 17.2971 25.057 17.1486C24.997 16.5314 24.9741 15.8771 24.9741 15.4028C24.9741 14.9286 24.9284 14.4486 24.8856 13.9743C24.8484 13.5914 24.817 13.24 24.8199 13.0057V13.0086Z" fill="#1D1D1B"/>
<path d="M28.503 14.1286C28.503 14.0886 28.523 14.0514 28.5287 14.0314V13.9971L28.5601 13.98L28.5973 13.9571L28.6344 13.9286L28.6515 13.9114C28.7378 13.8309 28.8414 13.7712 28.9544 13.7371C29.0955 13.6925 29.2412 13.6637 29.3887 13.6514C29.5355 13.6382 29.6834 13.644 29.8287 13.6686C29.9476 13.6852 30.0616 13.7271 30.163 13.7914C30.2704 13.8637 30.3666 13.9513 30.4487 14.0514C30.5164 14.1365 30.5678 14.2333 30.6001 14.3371C30.6359 14.4615 30.6533 14.5906 30.6515 14.72C30.6502 14.871 30.6397 15.0217 30.6201 15.1714C30.5969 15.3786 30.548 15.5821 30.4744 15.7771C30.4027 15.9633 30.3066 16.1391 30.1887 16.3C30.0848 16.4428 29.9628 16.5715 29.8258 16.6829C29.7026 16.7819 29.5621 16.8575 29.4115 16.9057H29.4287C29.3042 16.9169 29.1789 16.9169 29.0544 16.9057C28.9444 16.8962 28.8359 16.8732 28.7315 16.8371C28.6509 16.8095 28.5748 16.7701 28.5058 16.72C28.4378 16.6696 28.378 16.6088 28.3287 16.54C28.2756 16.4653 28.2333 16.3836 28.203 16.2971C28.1684 16.2051 28.1454 16.1091 28.1344 16.0114C28.1092 15.8004 28.114 15.5868 28.1487 15.3771C28.1865 15.1476 28.2448 14.9219 28.323 14.7029L28.1915 14.5086L28.3687 14.5743L28.3944 14.5029C28.4064 14.4713 28.416 14.4388 28.423 14.4057V14.3886L28.4573 14.2857C28.4744 14.2371 28.4887 14.1771 28.503 14.1286ZM27.9801 13.8429C27.943 13.9314 27.9115 14.02 27.8887 14.0857V14.1229V14.1629V14.1914V14.2171L27.8687 14.3057C27.8687 14.3257 27.8687 14.3457 27.8458 14.3686L27.8258 14.4229V14.4429C27.727 14.7208 27.6562 15.008 27.6144 15.3C27.5804 15.5493 27.5804 15.8021 27.6144 16.0514C27.6324 16.2026 27.6679 16.3513 27.7201 16.4943C27.7697 16.626 27.8359 16.7508 27.9173 16.8657C27.9972 16.9809 28.0935 17.0839 28.203 17.1714C28.3219 17.2584 28.4527 17.3277 28.5915 17.3771C28.7431 17.429 28.9005 17.4616 29.0601 17.4743C29.2396 17.494 29.4207 17.494 29.6001 17.4743H29.6315H29.6573C29.8709 17.4053 30.071 17.3 30.2487 17.1629C30.4458 17.0136 30.6191 16.8354 30.763 16.6343C30.887 16.4359 30.9859 16.2228 31.0573 16C31.1482 15.7568 31.2096 15.5036 31.2401 15.2457C31.2661 15.0564 31.2776 14.8654 31.2744 14.6743C31.2703 14.5052 31.2454 14.3373 31.2001 14.1743C31.15 14.0074 31.0707 13.8507 30.9658 13.7114C30.846 13.553 30.7012 13.415 30.5373 13.3029C30.384 13.1984 30.2109 13.1264 30.0287 13.0914C29.8119 13.0451 29.5894 13.0316 29.3687 13.0514C29.153 13.0686 28.9406 13.1148 28.7373 13.1886C28.5673 13.254 28.4112 13.3509 28.2773 13.4743L28.2201 13.5086C28.2005 13.522 28.1823 13.5373 28.1658 13.5543C28.1503 13.5696 28.1368 13.5869 28.1258 13.6057C28.1146 13.6239 28.105 13.643 28.0973 13.6629C28.0687 13.72 28.0401 13.7857 28.0144 13.8514L27.9801 13.8429Z" fill="#1D1D1B"/>
<path d="M33.643 13.1143C33.6674 13.08 33.6845 13.041 33.6933 12.9998C33.7021 12.9587 33.7023 12.9161 33.694 12.8749C33.6858 12.8336 33.6691 12.7944 33.6452 12.7598C33.6212 12.7252 33.5904 12.6959 33.5547 12.6736C33.5189 12.6514 33.479 12.6367 33.4374 12.6304C33.3958 12.6242 33.3533 12.6265 33.3126 12.6372C33.2719 12.648 33.2338 12.667 33.2007 12.693C33.1677 12.719 33.1402 12.7515 33.1202 12.7886C33.0548 12.9381 33.0217 13.0997 33.023 13.2628C33.0076 13.4702 32.979 13.6763 32.9373 13.88L32.8802 14.1286C32.683 14.9628 32.4402 16.0086 32.7059 16.9857C32.7253 17.0405 32.7502 17.0931 32.7802 17.1428L32.7945 17.1686C32.8259 17.2171 32.8602 17.2686 32.8773 17.2886C32.9296 17.3514 33.0048 17.3909 33.0862 17.3984C33.1676 17.4059 33.2487 17.3808 33.3116 17.3286C33.3426 17.3029 33.3683 17.2714 33.3871 17.2358C33.4059 17.2002 33.4175 17.1612 33.4212 17.1212C33.425 17.0811 33.4207 17.0406 33.4088 17.0022C33.3968 16.9637 33.3774 16.928 33.3516 16.8971L33.323 16.8543C33.3246 16.8467 33.3246 16.839 33.323 16.8314C33.323 16.8143 33.323 16.8314 33.323 16.8314C33.0973 16.0171 33.323 15.0571 33.503 14.2886C33.503 14.2428 33.5259 14.1828 33.5602 14.0343C33.6091 13.8026 33.6416 13.5677 33.6573 13.3314C33.6573 13.2057 33.6573 13.1486 33.6573 13.1314L33.643 13.1143Z" fill="#1D1D1B"/>
<path d="M35.6545 13.3257C35.6597 13.2832 35.6561 13.24 35.6437 13.1989C35.6314 13.1579 35.6106 13.1198 35.5827 13.0873C35.5548 13.0547 35.5205 13.0283 35.4819 13.0097C35.4432 12.9911 35.4011 12.9808 35.3583 12.9794C35.3154 12.978 35.2727 12.9856 35.233 13.0016C35.1932 13.0176 35.1572 13.0417 35.1273 13.0724C35.0973 13.1031 35.0741 13.1397 35.0591 13.1799C35.0441 13.2201 35.0377 13.2629 35.0402 13.3057C35.0402 13.5143 35.0173 13.7114 35.0059 13.8943C34.9576 14.4711 34.97 15.0515 35.043 15.6257C35.1165 16.1771 35.2576 16.7174 35.463 17.2343C35.6745 17.7714 35.9573 18.18 36.2287 18.2229C36.2685 18.2289 36.3091 18.227 36.3481 18.2173C36.3872 18.2076 36.4239 18.1904 36.4563 18.1665C36.4886 18.1426 36.516 18.1126 36.5368 18.0781C36.5575 18.0437 36.5713 18.0055 36.5773 17.9657C36.5833 17.926 36.5814 17.8854 36.5717 17.8463C36.5621 17.8073 36.5448 17.7706 36.5209 17.7382C36.497 17.7058 36.467 17.6785 36.4326 17.6577C36.3981 17.6369 36.3599 17.6232 36.3202 17.6172C36.1988 17.4266 36.1028 17.221 36.0344 17.0057C35.8478 16.5406 35.7201 16.054 35.6545 15.5572C35.5865 15.0179 35.575 14.4731 35.6202 13.9314C35.6202 13.7629 35.643 13.5772 35.6545 13.3257Z" fill="#1D1D1B"/>
<path d="M32.417 14.8257C32.3351 14.8257 32.2566 14.8582 32.1988 14.9161C32.1409 14.974 32.1084 15.0525 32.1084 15.1343C32.1084 15.2161 32.1409 15.2946 32.1988 15.3525C32.2566 15.4104 32.3351 15.4429 32.417 15.4429C32.8827 15.4429 33.6084 15.4429 34.2884 15.3771C34.7192 15.3513 35.1472 15.2911 35.5684 15.1971L35.8541 15.14L36.1684 15.08C36.2502 15.08 36.3287 15.0475 36.3866 14.9896C36.4445 14.9318 36.477 14.8533 36.477 14.7714C36.477 14.6896 36.4445 14.6111 36.3866 14.5532C36.3287 14.4954 36.2502 14.4629 36.1684 14.4629C36.1513 14.4629 35.937 14.5 35.7427 14.5371L35.4398 14.5914H35.3998C35.0146 14.6783 34.6227 14.7327 34.2284 14.7543C33.5741 14.8029 32.8627 14.8171 32.4027 14.8171L32.417 14.8257Z" fill="#1D1D1B"/>
<path d="M17.6885 24.8857C17.7293 24.9077 17.7743 24.9207 17.8205 24.9238C17.8667 24.9268 17.913 24.92 17.9563 24.9035C17.9996 24.8871 18.0389 24.8616 18.0714 24.8287C18.104 24.7958 18.1291 24.7562 18.145 24.7128C18.161 24.6693 18.1674 24.6229 18.1638 24.5767C18.1602 24.5306 18.1468 24.4857 18.1243 24.4452C18.1019 24.4047 18.071 24.3695 18.0338 24.342C17.9965 24.3145 17.9538 24.2953 17.9085 24.2857C17.8871 24.2761 17.8678 24.2625 17.8514 24.2457C17.8409 24.2346 17.8339 24.2207 17.8314 24.2057C17.7906 24.0005 17.7686 23.792 17.7657 23.5829V23.5571C17.763 23.3863 17.7716 23.2154 17.7914 23.0457C17.82 23.0323 17.8476 23.017 17.8742 23C18.1082 22.8896 18.3562 22.8117 18.6114 22.7686C18.7764 22.7356 18.9463 22.7356 19.1114 22.7686C19.1706 22.7812 19.2267 22.806 19.2758 22.8414C19.325 22.8768 19.3663 22.9221 19.3971 22.9743C19.4463 23.0573 19.4775 23.1498 19.4885 23.2457C19.4885 23.2457 19.4885 23.2629 19.4885 23.2714L19.5056 23.3657C19.5517 23.5932 19.5851 23.8231 19.6057 24.0543C19.6014 24.0994 19.6066 24.145 19.621 24.188C19.6354 24.231 19.6586 24.2705 19.6891 24.304C19.7196 24.3376 19.7568 24.3643 19.7983 24.3827C19.8397 24.401 19.8846 24.4105 19.9299 24.4105C19.9753 24.4105 20.0201 24.401 20.0616 24.3827C20.1031 24.3643 20.1403 24.3376 20.1708 24.304C20.2013 24.2705 20.2245 24.231 20.2389 24.188C20.2532 24.145 20.2585 24.0994 20.2542 24.0543C20.2332 23.7845 20.195 23.5164 20.1399 23.2514V23.1657C20.1413 23.1572 20.1413 23.1485 20.1399 23.14C20.1126 22.9637 20.0525 22.7941 19.9628 22.64C19.8877 22.514 19.7876 22.4046 19.6687 22.3186C19.5498 22.2326 19.4146 22.1719 19.2714 22.14C19.0197 22.0886 18.7602 22.0886 18.5085 22.14C18.1857 22.193 17.8715 22.2891 17.5742 22.4257L17.5228 22.4514L17.4799 22.4771C17.3901 22.5073 17.3108 22.5627 17.2515 22.6366C17.1923 22.7106 17.1555 22.8 17.1457 22.8943C17.1168 23.1188 17.1034 23.3451 17.1057 23.5714C17.1041 23.5809 17.1041 23.5905 17.1057 23.6C17.1097 23.8445 17.1346 24.0883 17.1799 24.3286C17.2049 24.4586 17.2652 24.5792 17.3542 24.6771C17.4415 24.7746 17.5514 24.8492 17.6742 24.8943L17.6885 24.8857Z" fill="#1D1D1B"/>
<path d="M18.7544 22.5429C18.776 22.4599 18.7637 22.3717 18.7203 22.2978C18.6769 22.2238 18.6059 22.1702 18.523 22.1486C18.44 22.127 18.3518 22.1392 18.2779 22.1826C18.2039 22.226 18.1503 22.297 18.1287 22.38C18.0573 22.9094 18.0458 23.4452 18.0944 23.9772C18.143 24.9 18.2487 25.96 18.3172 26.3572C18.3572 26.5743 18.4087 26.7943 18.4658 27.0029C18.5344 27.26 18.6144 27.52 18.6887 27.7429C18.716 27.8239 18.7744 27.8908 18.851 27.9288C18.9276 27.9668 19.0162 27.9729 19.0972 27.9457C19.1783 27.9183 19.2454 27.8601 19.2839 27.7836C19.3224 27.7072 19.3292 27.6186 19.303 27.5372C19.2344 27.3372 19.1601 27.0943 19.0915 26.8372C19.0344 26.6314 18.9858 26.4257 18.9544 26.2429C18.8887 25.8686 18.7858 24.8457 18.7401 23.9572C18.6938 23.4916 18.6938 23.0227 18.7401 22.5571L18.7544 22.5429Z" fill="#1D1D1B"/>
<path d="M22.3631 22.4C22.3437 22.3179 22.293 22.2467 22.2217 22.2015C22.1504 22.1564 22.0643 22.1409 21.9818 22.1585C21.8993 22.176 21.8269 22.2252 21.7801 22.2954C21.7334 22.3657 21.716 22.4514 21.7317 22.5343C21.7603 22.6714 21.9831 23.3914 22.1974 24.0143C22.3574 24.4943 22.5146 24.94 22.5831 25.0914L22.6517 25.2572V25.2743C22.8488 25.7457 23.3631 26.9886 23.5088 27.2743C23.8374 27.9657 24.326 27.9572 24.8088 27.7286C25.0291 27.6142 25.2369 27.4773 25.4288 27.32C25.5189 27.2529 25.6145 27.1937 25.7146 27.1429C25.7979 27.1224 25.8697 27.0697 25.9142 26.9963C25.9587 26.9229 25.9722 26.8348 25.9517 26.7514C25.9312 26.6681 25.8785 26.5963 25.8051 26.5518C25.7317 26.5073 25.6436 26.4938 25.5603 26.5143C25.3817 26.5777 25.2168 26.6747 25.0746 26.8L25.2688 27.0572L25.0746 26.8C24.9083 26.9333 24.7283 27.0482 24.5374 27.1429C24.5008 27.1688 24.4586 27.1858 24.4142 27.1923C24.3698 27.1989 24.3245 27.195 24.2819 27.1808C24.2394 27.1666 24.2007 27.1426 24.1692 27.1107C24.1376 27.0788 24.114 27.0399 24.1003 26.9972C23.9631 26.7114 23.4546 25.4886 23.2574 25.0229V25.0057L23.206 25.0257L23.2574 25.0057L23.1831 24.8572C23.1777 24.8423 23.171 24.828 23.1631 24.8143L22.8774 24.9772L23.1631 24.8143C23.126 24.7514 22.9746 24.3114 22.8088 23.82C22.606 23.2057 22.3888 22.5314 22.3631 22.4086V22.4Z" fill="#AA1118"/>
<path d="M22.3802 25.4286C22.3786 25.5083 22.4066 25.5858 22.4588 25.6461C22.511 25.7065 22.5836 25.7453 22.6628 25.7553C22.7419 25.7652 22.8219 25.7455 22.8874 25.7C22.9529 25.6544 22.9992 25.5862 23.0173 25.5086H22.9973C22.9973 25.5086 22.9973 25.4914 22.9973 25.4771L22.9688 25.4343H22.9888L23.0059 25.4571V25.4343H22.9802L22.9973 25.4571V25.4771V25.5C23.3924 25.1883 23.7526 24.8348 24.0716 24.4457C24.4447 23.9897 24.8684 23.5775 25.3345 23.2171L22.3802 25.4286ZM22.3802 25.4286C22.3769 25.338 22.3993 25.2484 22.4448 25.17C22.4903 25.0916 22.5571 25.0277 22.6373 24.9857L22.6659 24.9686C23.0121 24.6775 23.3289 24.3531 23.6116 24C24.0203 23.5049 24.4843 23.0582 24.9945 22.6686L25.0259 22.6514C25.1525 22.5736 25.2952 22.5258 25.4431 22.5114H25.4631C25.5627 22.4922 25.6659 22.5051 25.7578 22.5482C25.8497 22.5913 25.9256 22.6625 25.9745 22.7514C26.1173 22.9657 25.4831 23.16 25.4802 23.16C25.4893 23.171 25.4998 23.1806 25.5116 23.1886L25.4773 23.16C25.4382 23.1685 25.4006 23.1829 25.3659 23.2029H25.3488L22.3802 25.4286ZM25.8859 23.2C25.834 23.2337 25.7735 23.2516 25.7116 23.2516C25.6498 23.2516 25.5892 23.2337 25.5373 23.2H25.5173H25.8859ZM25.8859 23.2C25.8335 23.2336 25.7725 23.2515 25.7102 23.2515C25.6479 23.2515 25.5869 23.2336 25.5345 23.2H25.8859Z" fill="#AA1118"/>
<path d="M28.2315 23.8829C28.317 23.8876 28.4009 23.8584 28.4651 23.8017C28.5292 23.7451 28.5685 23.6654 28.5744 23.58C28.5827 23.5016 28.5607 23.423 28.5129 23.3603C28.4651 23.2976 28.3951 23.2556 28.3172 23.2429C28.2731 23.1928 28.2374 23.1358 28.2115 23.0743C28.1535 22.9452 28.1271 22.8042 28.1344 22.6629C28.1394 22.5795 28.1608 22.498 28.1972 22.4229C28.2328 22.4074 28.2703 22.3968 28.3087 22.3914C28.4809 22.3633 28.6565 22.3633 28.8287 22.3914C29.0337 22.4272 29.2321 22.4937 29.4172 22.5886C29.5112 22.6238 29.5966 22.6787 29.6675 22.7497C29.7385 22.8207 29.7934 22.906 29.8287 23C29.8801 23.2543 29.9115 23.4343 29.9372 23.6343C29.963 23.8343 29.9801 24.08 29.9972 24.44C30.0024 24.5254 30.041 24.6053 30.1046 24.6625C30.1682 24.7197 30.2518 24.7496 30.3372 24.7457C30.3798 24.7439 30.4215 24.7336 30.4601 24.7154C30.4986 24.6973 30.5331 24.6716 30.5616 24.64C30.59 24.6083 30.6119 24.5713 30.6259 24.531C30.6398 24.4908 30.6457 24.4482 30.643 24.4057C30.623 24.0171 30.6058 23.7686 30.5801 23.5486C30.5544 23.3286 30.5172 23.1343 30.463 22.8657C30.4102 22.676 30.3156 22.5005 30.186 22.3521C30.0565 22.2038 29.8953 22.0864 29.7144 22.0086C29.4704 21.8852 29.2095 21.7985 28.9401 21.7514C28.6898 21.7059 28.4333 21.7059 28.183 21.7514C28.0658 21.7649 27.9534 21.8052 27.8543 21.8691C27.7552 21.933 27.6721 22.0188 27.6115 22.12C27.5316 22.2741 27.4858 22.4437 27.4772 22.6171C27.4643 22.8635 27.5103 23.1093 27.6115 23.3343C27.6917 23.5263 27.8269 23.6904 28.0001 23.8057C28.0094 23.814 28.0201 23.8208 28.0315 23.8257C28.0941 23.8568 28.1619 23.8762 28.2315 23.8829Z" fill="#1D1D1B"/>
<path d="M29.3945 22.3714C29.4263 22.3412 29.4517 22.3049 29.469 22.2645C29.4864 22.2242 29.4953 22.1808 29.4953 22.1369C29.4952 22.093 29.4863 22.0495 29.4689 22.0092C29.4515 21.9689 29.4261 21.9326 29.3942 21.9024C29.3623 21.8723 29.3246 21.8489 29.2833 21.8339C29.2421 21.8188 29.1982 21.8123 29.1544 21.8147C29.1106 21.8172 29.0677 21.8285 29.0284 21.8481C28.9891 21.8677 28.9543 21.895 28.9259 21.9286C28.5259 22.3514 28.823 24.56 29.2116 25.9286C29.2803 26.1866 29.3643 26.4404 29.463 26.6886C29.5252 26.8901 29.6504 27.0663 29.8202 27.1914C29.8333 27.2003 29.8478 27.2071 29.863 27.2114C29.9288 27.2428 30.0028 27.2528 30.0745 27.24C30.1463 27.2272 30.2122 27.1922 30.263 27.14C30.2997 27.1057 30.3323 27.0674 30.3602 27.0257C30.3892 26.9859 30.415 26.9439 30.4373 26.9C30.4763 26.8238 30.4834 26.7353 30.4572 26.6539C30.4309 26.5725 30.3734 26.5048 30.2973 26.4657C30.2211 26.4397 30.1399 26.4319 30.0602 26.4429C29.983 26.2086 29.903 26 29.8373 25.7571C29.4945 24.5314 29.1602 22.6143 29.403 22.3714H29.3945Z" fill="#1D1D1B"/>
<path d="M13.3828 30.6857C13.3934 30.6043 13.3712 30.5219 13.3211 30.4568C13.271 30.3917 13.1971 30.3492 13.1157 30.3386C13.0342 30.328 12.9519 30.3502 12.8868 30.4003C12.8217 30.4504 12.7791 30.5243 12.7685 30.6057C12.7526 31.4141 12.8023 32.2225 12.9171 33.0229C12.9914 33.814 13.1309 34.5976 13.3342 35.3657C13.3571 35.4286 13.3771 35.4886 13.3942 35.5457C13.4971 35.8829 13.5971 36.2143 14.0228 36.3857C14.0601 36.4011 14.1001 36.4089 14.1405 36.4088C14.1808 36.4086 14.2207 36.4004 14.2579 36.3848C14.2951 36.3691 14.3288 36.3462 14.3571 36.3174C14.3854 36.2887 14.4078 36.2546 14.4228 36.2172C14.4382 36.1796 14.4461 36.1395 14.446 36.0989C14.4458 36.0583 14.4377 36.0182 14.4221 35.9808C14.4064 35.9434 14.3835 35.9094 14.3547 35.8808C14.3259 35.8523 14.2918 35.8297 14.2542 35.8143C14.1028 35.7543 14.0457 35.5629 13.9857 35.3686C13.9628 35.2943 13.94 35.22 13.9171 35.1543C13.7294 34.4316 13.6004 33.6949 13.5314 32.9515C13.421 32.2014 13.3713 31.4437 13.3828 30.6857Z" fill="#1D1D1B"/>
<path d="M12.5857 30.7571C12.5087 30.7646 12.4371 30.8004 12.385 30.8577C12.333 30.915 12.3041 30.9897 12.3041 31.0671C12.3041 31.1446 12.333 31.2192 12.385 31.2766C12.4371 31.3339 12.5087 31.3697 12.5857 31.3771C12.7381 31.3697 12.8898 31.3525 13.04 31.3257C13.2086 31.3 13.4057 31.2714 13.5886 31.2571C13.7355 31.2473 13.8824 31.2777 14.0133 31.3452C14.1442 31.4126 14.2542 31.5146 14.3315 31.64C14.3733 31.7126 14.3987 31.7936 14.4057 31.8771C14.4139 32.0108 14.371 32.1425 14.2857 32.2457C13.8172 32.8571 13.1429 32.8571 12.7315 32.8571H12.4629C12.3838 32.8672 12.3116 32.9076 12.2616 32.9697C12.2116 33.0318 12.1875 33.1109 12.1946 33.1904C12.2016 33.2699 12.2391 33.3435 12.2992 33.3959C12.3594 33.4483 12.4375 33.4754 12.5172 33.4714C12.5743 33.4714 12.6543 33.4714 12.74 33.4714C13.28 33.4714 14.1229 33.4486 14.7715 32.6143C14.9529 32.3899 15.0427 32.1051 15.0229 31.8171C15.0078 31.6419 14.9541 31.4721 14.8657 31.32C14.7787 31.1688 14.6633 31.0359 14.5257 30.9286C14.2471 30.7091 13.8967 30.6011 13.5429 30.6257C13.3429 30.6429 13.1343 30.6743 12.9515 30.7C12.8304 30.7205 12.7083 30.7348 12.5857 30.7429V30.7571Z" fill="#1D1D1B"/>
<path d="M17.2631 31.1229C17.1933 31.1661 17.1436 31.2352 17.1249 31.315C17.1061 31.3948 17.1199 31.4789 17.1631 31.5486C17.2063 31.6183 17.2754 31.668 17.3552 31.6867C17.435 31.7055 17.5191 31.6918 17.5888 31.6486C17.7944 31.5624 18.0193 31.5328 18.2402 31.5629C18.299 31.5693 18.3567 31.5837 18.4116 31.6057C18.4354 31.6166 18.4561 31.6333 18.4716 31.6543C18.4842 31.6943 18.4842 31.7371 18.4716 31.7771C18.4459 31.9743 18.1545 32.16 17.8802 32.3486L17.7688 32.42L17.7488 32.4371C17.5982 32.5191 17.484 32.6548 17.4288 32.8171C17.4068 32.9185 17.4148 33.0241 17.4519 33.121C17.4889 33.2179 17.5534 33.302 17.6373 33.3629L17.6545 33.38C18.1685 33.8707 18.7543 34.2801 19.3916 34.5943C19.9259 34.8343 20.4374 34.9 20.7631 34.5743C20.8205 34.516 20.8527 34.4375 20.8527 34.3557C20.8527 34.2739 20.8205 34.1954 20.7631 34.1371C20.7043 34.0796 20.6253 34.0473 20.5431 34.0473C20.4608 34.0473 20.3818 34.0796 20.3231 34.1371C20.2231 34.24 19.9574 34.1714 19.6459 34.0314C19.0779 33.7495 18.555 33.3846 18.0945 32.9486C18.1054 32.9426 18.1159 32.9359 18.1259 32.9286L18.2374 32.8571C18.6316 32.6057 19.0488 32.3371 19.0945 31.8514C19.1234 31.6705 19.0869 31.4851 18.9916 31.3286C18.9162 31.2044 18.8059 31.105 18.6745 31.0429C18.5597 30.9871 18.4358 30.9523 18.3088 30.94C17.949 30.9019 17.5856 30.9622 17.2573 31.1143L17.2631 31.1229Z" fill="#1D1D1B"/>
<path d="M18.2426 31.4686C18.2426 31.3867 18.2101 31.3083 18.1523 31.2504C18.0944 31.1925 18.0159 31.16 17.9341 31.16C17.8522 31.16 17.7737 31.1925 17.7159 31.2504C17.658 31.3083 17.6255 31.3867 17.6255 31.4686C17.6255 31.7543 17.6541 32.2171 17.6941 32.6829C17.7626 33.4857 17.8626 34.34 17.8826 34.4686C17.9282 34.8436 18.0114 35.2131 18.1312 35.5714C18.213 35.8413 18.3756 36.0796 18.5969 36.2543C18.6295 36.2783 18.6666 36.2956 18.706 36.305C18.7454 36.3144 18.7863 36.3158 18.8263 36.3092C18.8663 36.3025 18.9045 36.2879 18.9387 36.2662C18.9729 36.2445 19.0024 36.2162 19.0255 36.1829C19.0727 36.116 19.0916 36.0332 19.0782 35.9525C19.0649 35.8718 19.0203 35.7995 18.9541 35.7514C18.8369 35.6478 18.7533 35.5115 18.7141 35.36C18.6086 35.0414 18.5349 34.7131 18.4941 34.38C18.4769 34.2543 18.3798 33.4257 18.3112 32.6314C18.2741 32.1829 18.2426 31.7486 18.2426 31.4686Z" fill="#1D1D1B"/>
<path d="M22.6689 30.9228C22.7447 30.885 22.8023 30.8185 22.8291 30.7381C22.8559 30.6578 22.8496 30.57 22.8117 30.4943C22.7739 30.4185 22.7074 30.3609 22.627 30.3341C22.5467 30.3073 22.4589 30.3135 22.3832 30.3514C21.966 30.5543 22.1946 31.4086 22.3832 32.0657C22.446 32.3028 22.5032 32.5143 22.5146 32.6114C22.5165 32.6968 22.5422 32.7799 22.5889 32.8514C22.6656 33.1516 22.7829 33.44 22.9375 33.7086C22.9664 33.7386 23.0012 33.7624 23.0397 33.7786C23.0782 33.7948 23.1195 33.803 23.1613 33.8028C23.203 33.8025 23.2443 33.7938 23.2826 33.7772C23.3208 33.7605 23.3553 33.7363 23.384 33.7059C23.4126 33.6755 23.4348 33.6396 23.4491 33.6005C23.4635 33.5613 23.4698 33.5196 23.4676 33.4779C23.4654 33.4362 23.4547 33.3954 23.4363 33.3579C23.4178 33.3205 23.392 33.2872 23.3603 33.26C23.3603 33.26 23.2489 32.8886 23.1775 32.6628C23.1628 32.6084 23.1447 32.555 23.1232 32.5028C23.1003 32.3514 23.0432 32.14 22.9803 31.9028C22.8575 31.4457 22.6175 30.9086 22.6603 30.8886L22.6689 30.9228Z" fill="#1D1D1B"/>
<path d="M22.4345 31.0886C22.3958 31.101 22.36 31.1208 22.329 31.1471C22.2981 31.1733 22.2726 31.2054 22.254 31.2414C22.2354 31.2775 22.2241 31.3169 22.2208 31.3574C22.2174 31.3978 22.2221 31.4385 22.2345 31.4772C22.2468 31.5158 22.2667 31.5516 22.2929 31.5826C22.3192 31.6136 22.3512 31.6391 22.3873 31.6576C22.4234 31.6762 22.4628 31.6875 22.5032 31.6908C22.5437 31.6942 22.5844 31.6895 22.623 31.6772C22.8849 31.6435 23.1509 31.6831 23.3916 31.7914C23.6486 31.865 23.8808 32.0073 24.063 32.2029L24.3202 32.0343L24.0602 32.2029L24.0773 32.2257C24.1328 32.3152 24.1769 32.4111 24.2088 32.5114C24.2513 32.6257 24.2801 32.7446 24.2945 32.8657C24.3019 32.9428 24.3377 33.0144 24.395 33.0664C24.4524 33.1185 24.527 33.1474 24.6045 33.1474C24.6819 33.1474 24.7566 33.1185 24.8139 33.0664C24.8712 33.0144 24.9071 32.9428 24.9145 32.8657C24.8798 32.5149 24.7696 32.1757 24.5916 31.8714C24.3353 31.5648 23.9961 31.3386 23.6145 31.22C23.2462 31.0659 22.8406 31.0241 22.4487 31.1L22.4345 31.0886Z" fill="#1D1D1B"/>
<path d="M23.1429 36.2857C23.1824 36.3011 23.2247 36.3081 23.2671 36.3064C23.3095 36.3046 23.3511 36.2942 23.3893 36.2757C23.4274 36.2571 23.4614 36.2309 23.489 36.1987C23.5165 36.1665 23.5372 36.1289 23.5496 36.0883C23.562 36.0477 23.5659 36.005 23.5611 35.9629C23.5562 35.9207 23.5428 35.88 23.5215 35.8433C23.5002 35.8066 23.4716 35.7747 23.4374 35.7495C23.4032 35.7244 23.3642 35.7066 23.3229 35.6972C23.1086 35.6314 22.9543 35.1772 22.8657 34.9143C22.8657 34.8772 22.84 34.84 22.82 34.7886C22.82 34.7514 22.7972 34.7143 22.78 34.6714C22.6559 34.351 22.5602 34.0202 22.4943 33.6829C22.515 33.6646 22.5393 33.651 22.5657 33.6429C22.7508 33.569 22.942 33.5116 23.1372 33.4714C23.3517 33.4268 23.5628 33.3667 23.7686 33.2914H23.7943C23.9416 33.2306 24.0981 33.1949 24.2572 33.1857C24.3876 33.1901 24.5142 33.2306 24.6229 33.3029C24.9914 33.5286 24.9972 34.4457 25.0029 35.0686C25.0029 35.2029 25.0029 35.3257 25.0029 35.4257C25.0007 35.4685 25.0074 35.5113 25.0226 35.5513C25.0378 35.5913 25.0612 35.6278 25.0913 35.6583C25.1213 35.6888 25.1574 35.7127 25.1972 35.7285C25.237 35.7443 25.2797 35.7516 25.3225 35.75C25.3653 35.7484 25.4073 35.7379 25.4458 35.7192C25.4844 35.7005 25.5186 35.674 25.5463 35.6413C25.574 35.6087 25.5946 35.5706 25.6068 35.5296C25.619 35.4885 25.6225 35.4454 25.6172 35.4029C25.6172 35.3 25.6172 35.1857 25.6172 35.0629C25.6172 34.2857 25.6 33.18 24.9457 32.7771C24.7414 32.6422 24.5021 32.5697 24.2572 32.5686C24.0233 32.5733 23.7925 32.6228 23.5772 32.7143H23.5514C23.3717 32.7802 23.1874 32.8327 23 32.8714C22.7708 32.9172 22.5461 32.9831 22.3286 33.0686C22.2068 33.1156 22.0973 33.1899 22.0086 33.2857C21.9161 33.3906 21.8652 33.5258 21.8657 33.6657C21.8657 33.7571 22.1772 34.9143 22.2143 35.0086L22.2572 35.1286C22.3829 35.5 22.6029 36.1429 23.1143 36.3L23.1429 36.2857Z" fill="#1D1D1B"/>
<path d="M31.8056 35.6629C31.7812 35.6972 31.7641 35.7361 31.7553 35.7773C31.7465 35.8185 31.7463 35.861 31.7546 35.9023C31.7628 35.9435 31.7795 35.9827 31.8035 36.0173C31.8274 36.0519 31.8582 36.0812 31.8939 36.1035C31.9297 36.1257 31.9696 36.1404 32.0112 36.1467C32.0528 36.153 32.0953 36.1506 32.136 36.1399C32.1767 36.1291 32.2148 36.1101 32.2479 36.0841C32.2809 36.0581 32.3084 36.0256 32.3284 35.9886C32.3918 35.8229 32.4396 35.6517 32.4713 35.4771C32.5198 35.2571 32.5656 35 32.5856 34.8457C32.6484 34.5143 32.8056 33.9886 32.9656 33.4714L33.037 33.2343C33.0646 33.5687 33.1317 33.8986 33.237 34.2171C33.397 34.6257 33.6513 34.8343 34.057 34.6743C34.1173 34.6499 34.169 34.6081 34.2056 34.5543C34.4913 34.2057 34.6027 33.2943 34.6513 32.9029C34.6513 32.8457 34.6198 32.9029 34.6513 32.8514C34.6737 32.8071 34.6855 32.7582 34.6856 32.7086C34.6856 32.5714 34.7256 32.3914 34.7541 32.2C34.7675 32.3524 34.7789 32.4924 34.7884 32.62C34.802 33.2445 34.9358 33.8605 35.1827 34.4343C35.3446 34.7563 35.5504 35.0544 35.7941 35.32C36.0026 35.563 36.2509 35.7688 36.5284 35.9286C36.5644 35.9474 36.6038 35.959 36.6443 35.9626C36.6847 35.9662 36.7255 35.9617 36.7643 35.9495C36.803 35.9373 36.839 35.9176 36.8701 35.8914C36.9012 35.8653 36.9269 35.8332 36.9456 35.7971C36.9826 35.7239 36.9893 35.6391 36.9642 35.561C36.9391 35.4828 36.8841 35.4178 36.8113 35.38C36.6002 35.2555 36.4118 35.0961 36.2541 34.9086C36.0553 34.6957 35.887 34.4563 35.7541 34.1971C35.5337 33.685 35.4152 33.1347 35.4056 32.5771C35.3856 32.3114 35.3656 32.0057 35.3113 31.6086C35.3127 31.6001 35.3127 31.5914 35.3113 31.5829L35.0056 31.6257L35.3113 31.5829C35.296 31.3521 35.2348 31.1268 35.1313 30.92C34.9541 30.6343 34.7627 30.6343 34.5598 30.8343L34.537 30.8514L34.7598 31.0686L34.5398 30.8543C34.4565 30.9508 34.3942 31.0637 34.357 31.1857C34.2148 31.6708 34.1191 32.1682 34.0713 32.6714C34.0713 32.7143 34.057 32.7657 34.0484 32.8257C34.0056 33.1714 33.8913 34.0514 33.8713 34.0886H33.8398C33.8398 34.0886 33.8398 34.04 33.8227 33.98C33.7024 33.5504 33.6315 33.1085 33.6113 32.6629C33.5856 32.3771 33.5627 32.1314 33.5284 31.9286C33.4598 31.5114 33.3256 31.3571 33.0998 31.4086C32.8741 31.46 32.8313 31.6171 32.7798 31.86L32.7627 31.9429V31.9686C32.6798 32.3371 32.537 32.8086 32.397 33.2686C32.2341 33.8029 32.0741 34.3229 32.0056 34.6971C31.9741 34.8086 31.9027 35.2171 31.877 35.3286C31.837 35.5086 31.8198 35.6343 31.8141 35.6486L31.8056 35.6629Z" fill="#1D1D1B"/>
<path fill-rule="evenodd" clip-rule="evenodd" d="M25.9999 22.7743C25.6742 22.8238 25.4999 22.9524 25.4771 23.16C25.5317 23.2005 25.5938 23.2297 25.6599 23.2457C25.7199 23.2575 25.7821 23.2517 25.8389 23.2292C25.8958 23.2068 25.945 23.1684 25.9808 23.1188C26.0166 23.0692 26.0374 23.0104 26.0408 22.9494C26.0442 22.8883 26.03 22.8275 25.9999 22.7743Z" fill="#AA1118"/>
<path fill-rule="evenodd" clip-rule="evenodd" d="M29.4973 30.9343C29.0892 30.8167 28.6534 30.8398 28.2601 31C27.7573 31.2457 27.4182 31.7762 27.243 32.5914C27.0524 33.4587 27.0848 34.3601 27.3373 35.2114C27.4213 35.4271 27.5565 35.619 27.7312 35.7708C27.9059 35.9226 28.1149 36.0297 28.3401 36.0829C28.9287 36.1819 29.3744 36.0962 29.6773 35.8257C30.2978 35.0721 30.6701 34.145 30.743 33.1714C30.7263 32.6708 30.5912 32.1812 30.3487 31.7429C30.1691 31.3773 29.8653 31.0876 29.4916 30.9257L29.4973 30.9343ZM28.5716 31.5429C28.7896 31.4739 29.0215 31.4611 29.2458 31.5057C29.763 31.6571 30.1344 32.7086 30.103 33.1429C30.0716 33.8371 29.5916 35.0886 29.2687 35.3457C29.0759 35.4794 28.8408 35.5382 28.6077 35.5108C28.3747 35.4834 28.1596 35.3719 28.003 35.1971C27.9589 35.1386 27.9233 35.0742 27.8973 35.0057C27.6776 34.2628 27.651 33.4761 27.8201 32.72C27.9487 32.1486 28.203 31.6086 28.5601 31.5371L28.5716 31.5429Z" fill="#1D1D1B"/>
<path d="M4.9541 11.3772C7.62571 7.34396 11.5081 4.26245 16.0425 2.57614C20.5769 0.88984 25.5293 0.685723 30.1871 1.99317C34.8449 3.30062 38.9677 6.0522 41.9621 9.85186C44.9566 13.6515 46.6682 18.3033 46.8507 23.1377C47.0331 27.972 45.677 32.7396 42.9775 36.7541C40.278 40.7687 36.3743 43.8232 31.8284 45.4781C27.2824 47.1329 22.3287 47.3027 17.6801 45.963C13.0315 44.6233 8.92785 41.8432 5.95982 38.0229L6.62267 37.5086C9.48202 41.1871 13.4347 43.8635 17.9119 45.1528C22.389 46.442 27.1598 46.2776 31.5376 44.6831C35.9153 43.0886 39.6743 40.1463 42.2736 36.2796C44.8729 32.413 46.1783 27.8214 46.0021 23.1656C45.8259 18.5098 44.1772 14.03 41.2931 10.3709C38.409 6.71172 34.4384 4.06195 29.9526 2.8029C25.4669 1.54385 20.6973 1.74045 16.3304 3.3644C11.9635 4.98836 8.22439 7.95592 5.65124 11.84L4.9541 11.3772Z" fill="#AA1118"/>
<path d="M3.61415 15.7143L3.63129 15.6743L3.64844 15.6343L3.66558 15.5943L3.67987 15.5543L3.69701 15.5143L3.71415 15.4743L3.7313 15.4343L3.74844 15.3943L3.76558 15.3543L3.78272 15.3171L3.79987 15.2771L3.81701 15.2371L3.83415 15.1971L3.85129 15.1571L3.86844 15.1171L3.88558 15.08L3.90272 15.04L3.91987 15L3.93987 14.96L3.95701 14.9228L3.97415 14.8828L3.99987 14.8571L4.01987 14.8171L4.03701 14.7771L4.05415 14.74L4.07415 14.7L4.09129 14.66L4.11129 14.6228L4.12844 14.5828L4.14844 14.5428L4.16558 14.5057L4.18558 14.4657L4.20272 14.4257L4.22272 14.3886L4.24272 14.3486L4.25987 14.3086L4.27987 14.2714L4.29987 14.2314L3.54844 13.86L3.52844 13.9L3.50844 13.94L3.48844 13.98L3.46844 14.02L3.44844 14.06L3.43129 14.1L3.41129 14.14L3.39129 14.18L3.37129 14.2228L3.35129 14.2628L3.33415 14.3028L3.31415 14.3428L3.29415 14.3857L3.27701 14.4257L3.25701 14.4657L3.23987 14.5057L3.21987 14.5486L3.20272 14.5886L3.18272 14.6286L3.16558 14.6714L3.14558 14.7114L3.12844 14.7514L3.10844 14.7943L3.09129 14.8343L3.07415 14.8743L3.05701 14.9171L3.03701 14.9571L3.01987 14.9971L3.00272 15.04L2.98558 15.08L2.96844 15.1228L2.94844 15.1628L2.93129 15.2057L2.91415 15.2457L2.89701 15.2857L2.87987 15.3286L2.86272 15.3714L2.84558 15.4114L3.61415 15.7143ZM5.17987 35.5L5.15701 35.4628L5.14272 35.4285L5.11415 35.3828L5.08844 35.3371L5.05987 35.2914L5.03415 35.2457L5.00558 35.2L4.97987 35.1543L4.95415 35.1085L4.92558 35.0628L4.89987 35.0171L4.87415 34.9714L4.84844 34.9257L4.82272 34.8771L4.79701 34.8314L4.77129 34.7857L4.74558 34.74L4.71987 34.6943L4.69415 34.6457L4.66844 34.6L4.64272 34.5543L4.61701 34.5085L4.57129 34.4571L4.54558 34.4114L4.51987 34.3657L4.49701 34.3171L4.47129 34.2714L4.44844 34.2228L4.42272 34.1771L4.39987 34.1314L4.37415 34.0828V34.0685L3.62558 34.4485V34.4628L3.64844 34.5114L3.67415 34.56L3.69987 34.6114L3.72558 34.66L3.75129 34.7085L3.77701 34.7571L3.80272 34.8057L3.82844 34.8543L3.85415 34.9028L3.87987 34.9514L3.90558 34.9971L3.93129 35.0457L3.95701 35.0943L3.98558 35.1428L4.01129 35.1914L4.03701 35.24L4.06558 35.2857L4.09129 35.3343L4.11987 35.3828L4.14558 35.4314L4.17415 35.4771L4.19987 35.5257L4.22844 35.5743L4.25701 35.62L4.28558 35.6685L4.31129 35.7143L4.33987 35.7628L4.36844 35.8085L4.39701 35.8571L4.42558 35.9028L4.44558 35.94L5.16558 35.5085L5.17987 35.5ZM3.38558 31.7857L3.36844 31.74L3.34844 31.6914L3.33129 31.6428L3.31415 31.5914L3.29415 31.5428L3.27701 31.4943L3.25987 31.4428L3.24272 31.3943L3.22272 31.3457L3.20558 31.2943L3.18844 31.2457L3.17129 31.1943L3.15415 31.1457L3.13701 31.0943L3.12272 31.0457L3.10558 30.9943L3.08844 30.9457L3.07129 30.8943L3.05415 30.8457V30.7943L3.03701 30.7428L3.02272 30.6943L3.00558 30.6428L2.98844 30.5943L2.97415 30.5428V30.4914L2.95701 30.4428L2.94272 30.3914V30.34L2.92558 30.2914L2.91129 30.24V30.2228L2.10558 30.4571V30.4743L2.12272 30.5285V30.58L2.13987 30.6343L2.15415 30.6857L2.17129 30.7371L2.18844 30.7914L2.20272 30.8428L2.21987 30.8943L2.23701 30.9457V31L2.25415 31.0514L2.27129 31.1028L2.28844 31.1543L2.30558 31.2085L2.32272 31.26L2.33987 31.3114L2.35701 31.3628L2.37415 31.4143L2.39415 31.4685L2.41129 31.52L2.42844 31.5714L2.44558 31.6228L2.46558 31.6743L2.48272 31.7257L2.50272 31.7771L2.51987 31.8285L2.53987 31.88L2.55701 31.9314L2.57129 32L2.59129 32.0514L2.60558 32.0971L3.39415 31.8114L3.38558 31.7857ZM2.30558 27.8428V27.7914V27.74V27.6886V27.6343V27.5828V27.5314V27.48V27.4257V27.3743V27.3228V27.2686V27.2171V27.1628V27.1114V27.06V27.0057V26.9543V26.9V26.8486V26.7971V26.7428V26.6914V26.6371V26.5857V26.5314V26.48V26.4257V26.3743V26.32V26.2686V26.2143L1.24844 26.2857V26.3457V26.4028V26.4571V26.5114V26.5657V26.62V26.6771V26.7314V26.7857V26.84V26.8943V26.9486V27.0028V27.0571V27.1143V27.1685V27.2228V27.2771V27.3314V27.3857V27.44V27.4943V27.5486V27.6028V27.6571L1.42844 27.7143V27.7686V27.8228V27.8771V27.9314V27.98L2.25415 27.84L2.30558 27.8428ZM1.98272 23.7428V22.2571V22.2143V22.1L1.14844 22.0257V22.1V22.1428V22.2343V22.2771V23.7314H1.98844L1.98272 23.7428ZM2.42272 19.6571V19.62V19.5771V19.5371V19.4943V19.4514V19.4114V19.3686V19.3257V19.2857V19.2428V19.2V19.16V19.1171V19.0743V19.0314V18.9914V18.9486V18.9086V18.8657V18.8228V18.7828V18.74V18.7V18.6571V18.6143V18.5743V18.5314V18.4914V18.4486V18.4086V18.3657V18.3257V18.2828V18.2428V18.2V18.16V18.1171V18.0771V18.0571L1.99987 17.8286V17.8486V17.8914V17.9343V17.9771V18.02V18.0628V18.1057V18.1486V18.1943V18.2371V18.28V18.3228V18.3657V18.4086V18.4514V18.4943V18.5371V18.5828V18.6257V18.6686V18.7114V18.7543V18.7971V18.8428V18.8857V18.9286V18.9714V19.0171V19.06V19.1028V19.1457V19.1886V19.2343V19.2771V19.32V19.3628V19.4086V19.4514V19.4886L2.82272 19.6571H2.42272Z" fill="#1D1D1B"/>
</svg>
